<svg width="288" height="172" viewBox="0 0 288 172" fill="none" xmlns="http://www.w3.org/2000/svg">
<g clip-path="url(#clip0_5697_2138)">
<path d="M83.4151 33.8548C116.978 33.8548 143.233 60.3246 143.233 102.69C143.233 145.056 116.726 172 83.4151 172C63.4716 172 49.1219 163.098 41.5878 151.303V170.08H0V2.69092H41.5878V54.8006C49.1219 42.7689 63.9627 33.8667 83.4151 33.8667V33.8548ZM71.0178 69.7128C55.4583 69.7128 41.3482 81.5075 41.3482 102.927C41.3482 124.347 55.4583 136.142 71.0178 136.142C86.5773 136.142 100.927 124.11 100.927 102.69C100.927 81.2704 86.8168 69.7247 71.0178 69.7247V69.7128Z" fill="#3A4B5B"/>
<path d="M245.214 61.1663H286.802V170.341H245.214V61.1663Z" fill="#3A4B5B"/>
<path d="M161.847 69.9619H145.306V35.7871H161.847V3.04663H203.435V35.7752H230.673V69.95H203.435V123.862C203.435 131.804 206.837 135.17 216.084 135.17H230.925V170.068H209.771C181.563 170.068 161.859 158.273 161.859 123.375V69.95L161.847 69.9619Z" fill="#3A4B5B"/>
<path d="M108.317 2.95166H137.196V35.7395C121.254 35.7395 108.317 22.9255 108.317 7.15979V2.95166Z" fill="#3A4B5B"/>
<path d="M265.733 43.3615C278.031 43.3615 288 33.6547 288 21.6808C288 9.70681 278.031 0 265.733 0C253.435 0 243.466 9.70681 243.466 21.6808C243.466 33.6547 253.435 43.3615 265.733 43.3615Z" fill="#3A4B5B"/>
</g>
<defs>
<clipPath id="clip0_5697_2138">
<rect width="288" height="172" fill="white"/>
</clipPath>
</defs>
</svg>
