<svg width="247" height="937" viewBox="0 0 247 937" fill="none" xmlns="http://www.w3.org/2000/svg">
<path d="M19.1523 937L19.1523 883.716H147.561L76.2905 831.055L76.2905 765.307L164.204 837.598L251.49 764.695L251.49 830.749L178.018 883.716H251.49V937H19.1523Z" fill="white"/>
<path d="M251.49 708.032V761.316H76.3007L76.3007 708.032H105.502C86.9775 695.885 74.4184 676.879 74.4184 653.503H131.248V668.151C131.248 693.385 140.042 708.032 170.18 708.032H251.49Z" fill="white"/>
<path d="M254 573.884C254 624.983 219.46 661.751 163.895 661.751C108.321 661.751 73.791 625.606 73.791 573.884C73.791 523.101 107.704 487.262 161.077 487.262C166.097 487.262 171.435 487.578 176.773 488.201L176.773 608.784C199.69 606.916 210.367 592.89 210.367 575.762C210.367 560.808 202.828 552.397 193.416 548.028V491.324C227.627 499.725 254 530.573 254 573.884ZM146.934 608.467V541.791C127.782 541.791 116.796 556.745 116.796 574.506C116.796 591.951 127.473 605.354 146.934 608.467Z" fill="white"/>
<path d="M73.7808 402.661C73.7808 376.805 85.7124 358.421 101.1 349.071H76.3008L76.3008 295.787L251.49 295.787V349.071H226.691C242.068 358.727 254 377.111 254 402.967C254 445.339 218.833 479.3 163.577 479.3C108.321 479.3 73.7808 445.339 73.7808 402.65V402.661ZM120.561 387.084C120.561 407.03 135.63 425.097 163.577 425.097C191.523 425.097 207.22 407.03 207.22 387.084C207.22 366.832 191.832 349.071 163.896 349.071C135.949 349.071 120.571 366.832 120.571 387.084H120.561Z" fill="white"/>
<path d="M120.88 267.716V288.907H76.3008V267.716H33.604L33.604 214.432H76.3008L76.3008 179.532L120.88 179.532L120.88 214.432L191.205 214.432C201.562 214.432 205.965 210.073 205.965 198.232V179.226H251.49V206.337C251.49 242.483 236.103 267.716 190.577 267.716L120.88 267.716Z" fill="white"/>
<path d="M29.2017 171.488C12.8779 171.488 -1.67435e-06 158.719 0 139.712C1.64648e-06 121.022 12.8677 108.242 29.2017 108.242C45.5357 108.242 58.0845 121.012 58.0845 139.712C58.0845 158.719 45.2168 171.488 29.2017 171.488ZM76.3008 166.507L76.3008 113.223L251.49 113.223V166.507L76.3008 166.507Z" fill="white"/>
<path d="M120.88 81.9367V101.25H76.3008V81.9367H71.2813C25.4473 81.9367 2.83892 53.8963 5.66755 0.928862L51.1929 0.928866C49.938 21.4973 56.2124 28.6631 74.7374 28.6631H76.3111L76.3111 0L120.89 3.86758e-06V28.6631L251.49 28.6631V81.947L120.88 81.947V81.9367Z" fill="white"/>
</svg>
