<svg width="50" height="50" viewBox="0 0 50 50" fill="none" xmlns="http://www.w3.org/2000/svg">
<path fill-rule="evenodd" clip-rule="evenodd" d="M34.9437 15.0563C35.5539 15.6665 35.5539 16.6558 34.9437 17.266L27.2097 25L34.9437 32.734C35.5539 33.3442 35.5539 34.3335 34.9437 34.9437C34.3335 35.5539 33.3442 35.5539 32.734 34.9437L25 27.2097L17.266 34.9437C16.6558 35.5539 15.6665 35.5539 15.0563 34.9437C14.4461 34.3335 14.4461 33.3442 15.0563 32.734L22.7903 25L15.0563 17.266C14.4461 16.6558 14.4461 15.6665 15.0563 15.0563C15.6665 14.4461 16.6558 14.4461 17.266 15.0563L25 22.7903L32.734 15.0563C33.3442 14.4461 34.3335 14.4461 34.9437 15.0563Z" fill="white"/>
</svg>
