<svg width="28" height="61" viewBox="0 0 28 61" fill="none" xmlns="http://www.w3.org/2000/svg">
<g clip-path="url(#clip0_5690_1869)">
<path d="M0.479994 35.02L13.08 42.62C13.08 42.62 13.14 42.64 13.16 42.66C13.19 42.67 13.22 42.69 13.25 42.7C13.36 42.74 13.48 42.77 13.59 42.77C13.7 42.77 13.82 42.74 13.93 42.7C13.96 42.69 13.99 42.68 14.02 42.66C14.05 42.65 14.08 42.64 14.1 42.62L26.7 35.02C27.17 34.73 27.32 34.12 27.04 33.65C26.75 33.18 26.14 33.03 25.67 33.31L14.59 40V15.51C14.59 14.96 14.14 14.51 13.59 14.51C13.04 14.51 12.59 14.96 12.59 15.51V40L1.50999 33.31C1.03999 33.02 0.419994 33.18 0.139994 33.65C-0.150006 34.12 0.00999358 34.74 0.479994 35.02Z" fill="white"/>
<path d="M25.68 42.06L13.6 49.35L1.52 42.06C1.05 41.77 0.430003 41.93 0.150003 42.4C-0.139997 42.87 0.0200034 43.49 0.490003 43.77L13.09 51.37C13.25 51.47 13.43 51.51 13.61 51.51C13.79 51.51 13.97 51.46 14.13 51.37L26.73 43.77C27.2 43.48 27.35 42.87 27.07 42.4C26.79 41.93 26.17 41.78 25.7 42.06H25.68Z" fill="white"/>
<path d="M25.68 50.8L13.6 58.09L1.52 50.8C1.05 50.51 0.430003 50.67 0.150003 51.14C-0.139997 51.61 0.0200034 52.23 0.490003 52.51L13.09 60.11C13.25 60.21 13.43 60.25 13.61 60.25C13.79 60.25 13.97 60.2 14.13 60.11L26.73 52.51C27.2 52.22 27.35 51.61 27.07 51.14C26.78 50.67 26.17 50.51 25.7 50.8H25.68Z" fill="white"/>
<path d="M13.6 12.68C14.15 12.68 14.6 12.23 14.6 11.68V6.27002C14.6 5.72002 14.15 5.27002 13.6 5.27002C13.05 5.27002 12.6 5.72002 12.6 6.27002V11.68C12.6 12.23 13.05 12.68 13.6 12.68Z" fill="white"/>
<path d="M13.6 4.08C14.15 4.08 14.6 3.63 14.6 3.08V1C14.6 0.45 14.15 0 13.6 0C13.05 0 12.6 0.45 12.6 1V3.08C12.6 3.63 13.05 4.08 13.6 4.08Z" fill="white"/>
</g>
<defs>
<clipPath id="clip0_5690_1869">
<rect width="27.2" height="60.26" fill="white"/>
</clipPath>
</defs>
</svg>
