<svg width="110" height="270" viewBox="0 0 110 270" fill="none" xmlns="http://www.w3.org/2000/svg">
<path d="M0 0H109.778V270C49.1746 270 0 220.772 0 160.204V0Z" fill="url(#paint0_linear_5696_2010)"/>
<path d="M46.374 83.6309L46.374 89.7039L30.3155 89.7039L30.3155 83.6309L46.374 83.6309Z" fill="#B0AEB0"/>
<path d="M30.027 102.181C30.027 96.8887 32.9756 93.335 36.8107 93.0464L36.8107 99.049C35.4244 99.1898 34.5026 100.435 34.5026 102.103C34.5026 103.665 35.2133 104.482 36.1 104.482C39.2948 104.482 36.9867 93.6798 44.27 93.6798C47.6478 93.6798 50.4133 96.5579 50.4133 101.744C50.4133 106.931 47.5704 109.703 43.6648 110.09L43.6648 104.475C45.0159 104.299 45.9026 103.264 45.9026 101.561C45.9026 100.14 45.3326 99.3587 44.3756 99.3587C41.2159 99.3587 43.4537 110.09 36.0648 110.196C32.6167 110.196 30.027 107.142 30.027 102.166L30.027 102.181Z" fill="#B0AEB0"/>
<path d="M55.0015 113.94L55.0015 120.012L30.3085 120.012L30.3085 113.94L55.0015 113.94Z" fill="#B0AEB0"/>
<path d="M30.027 133.228C30.027 127.401 33.9325 123.207 40.2236 123.207C46.5147 123.207 50.4203 127.331 50.4203 133.228C50.4203 139.125 46.5851 143.108 40.5403 143.108C39.9703 143.108 39.3651 143.073 38.767 143.002L38.767 129.252C36.1703 129.463 34.967 131.068 34.967 133.017C34.967 134.72 35.8184 135.684 36.8881 136.176L36.8881 142.644C33.0177 141.686 30.034 138.168 30.034 133.228L30.027 133.228ZM42.1447 129.287L42.1447 136.887C44.3121 136.887 45.5577 135.184 45.5577 133.158C45.5577 131.131 44.3473 129.639 42.1447 129.287Z" fill="#B0AEB0"/>
<path d="M30.3085 152.383L30.3085 146.31L50.1318 146.31L50.1318 152.383L46.8244 152.383C48.9214 153.769 50.3429 155.937 50.3429 158.604L43.911 158.604L43.911 156.936C43.911 154.058 42.9188 152.39 39.5059 152.39L30.3014 152.39L30.3085 152.383Z" fill="#B0AEB0"/>
<path d="M27.4444 99.014L27.4444 102.997L32.6025 105.017L32.6025 100.034L27.4444 99.014Z" fill="#B0AEB0"/>
<path d="M77.696 95.8191C77.696 100.724 73.7904 104.559 67.5345 104.559C61.2786 104.559 57.3027 100.689 57.3027 95.8191C57.3027 92.9058 58.6186 90.8088 60.3567 89.711L57.5841 89.711L57.5841 83.631L82.2982 83.631L82.2982 89.7039L74.6067 89.7039C76.3801 90.8088 77.696 92.9691 77.696 95.8121L77.696 95.8191ZM72.4041 94.0106C72.4041 91.7376 70.666 89.6758 67.4993 89.6758C64.3327 89.6758 62.5945 91.7376 62.5945 94.0106C62.5945 96.2836 64.3678 98.3806 67.5345 98.3806C70.7012 98.3806 72.4041 96.3188 72.4041 94.0106Z" fill="#3A4B5B"/>
<path d="M73.6638 106.332L73.6638 112.405L57.5489 112.405L57.5489 106.332L73.6638 106.332Z" fill="#3A4B5B"/>
<path d="M72.3689 122.532L72.3689 120.118L77.4145 120.118L77.4145 122.532L82.2419 122.532L82.2419 128.605L77.4074 128.605L77.4074 132.581L72.3619 132.581L72.3619 128.605L64.403 128.605C63.2278 128.605 62.7352 129.104 62.7352 130.455L62.7352 132.623L57.5841 132.623L57.5841 129.534C57.5841 125.41 59.3222 122.532 64.4733 122.532L72.3689 122.532Z" fill="#3A4B5B"/>
<path d="M77.6961 142.812C77.6961 145.761 76.345 147.858 74.6069 148.921L77.4147 148.921L77.4147 154.994L57.5913 154.994L57.5913 148.921L60.3991 148.921C58.661 147.816 57.3098 145.726 57.3099 142.777C57.3099 137.943 61.2858 134.072 67.5417 134.072C73.7976 134.072 77.7032 137.943 77.7032 142.812L77.6961 142.812ZM72.4043 144.586C72.4043 142.313 70.7013 140.251 67.5347 140.251C64.368 140.251 62.5947 142.313 62.5947 144.586C62.5947 146.859 64.3328 148.921 67.4995 148.921C70.6661 148.921 72.4043 146.894 72.4043 144.586Z" fill="#3A4B5B"/>
<path d="M82.2982 157.274L82.2982 163.347L69.3501 163.347L77.4145 169.349L77.4145 176.844L67.4641 168.603L57.5841 176.914L57.5841 169.384L65.8949 163.347L57.5841 163.347L57.5841 157.274L82.2982 157.274Z" fill="#3A4B5B"/>
<path d="M77.4146 178.272L77.4146 184.345L57.5912 184.345L57.5912 178.272L77.4146 178.272Z" fill="#3A4B5B"/>
<path d="M68.3509 215.118C70.9476 215.118 72.369 213.626 72.369 211.318C72.369 209.01 70.9476 207.518 68.3509 207.518L57.5842 207.518L57.5842 201.48L68.3509 201.48C70.9476 201.48 72.369 199.988 72.369 197.68C72.369 195.372 70.9476 193.88 68.3509 193.88L57.5842 193.88L57.5842 187.807L77.4146 187.807L77.4146 193.88L74.9305 193.88C76.5279 195.055 77.6327 197.075 77.6327 199.672C77.6327 202.655 76.3168 205.069 73.9383 206.42C76.0353 207.736 77.6327 210.22 77.6327 213.098C77.6327 218.003 74.5083 221.163 69.1742 221.163L57.5913 221.163L57.5913 215.125L68.3579 215.125L68.3509 215.118Z" fill="#3A4B5B"/>
<path d="M82.256 113.658L82.256 118.732L76.4293 118.732C76.4293 115.931 78.7022 113.658 81.503 113.658L82.256 113.658Z" fill="#3A4B5B"/>
<path d="M76.1055 109.168C76.1055 110.867 77.4602 112.244 79.1314 112.244C80.8026 112.244 82.1573 110.867 82.1573 109.168C82.1573 107.47 80.8026 106.093 79.1314 106.093C77.4602 106.093 76.1055 107.47 76.1055 109.168Z" fill="#3A4B5B"/>
<path d="M48.5414 86.5936C48.5414 88.292 49.8962 89.6688 51.5673 89.6688C53.2385 89.6688 54.5933 88.292 54.5933 86.5936C54.5933 84.8952 53.2385 83.5184 51.5673 83.5184C49.8962 83.5184 48.5414 84.8952 48.5414 86.5936Z" fill="#B0AEB0"/>
<defs>
<linearGradient id="paint0_linear_5696_2010" x1="19" y1="300.963" x2="96.4074" y2="43.4075" gradientUnits="userSpaceOnUse">
<stop stop-color="#DEE2E6"/>
<stop offset="1" stop-color="white"/>
</linearGradient>
</defs>
</svg>
