<svg width="196" height="78" viewBox="0 0 196 78" fill="none" xmlns="http://www.w3.org/2000/svg">
<g clip-path="url(#clip0_5690_1851)">
<path d="M17.45 6.53C24.4 6.53 29.85 12.07 29.85 20.94C29.85 29.81 24.36 35.45 17.45 35.45C13.32 35.45 10.35 33.59 8.78003 31.12V35.05H0.160034V0H8.78003V10.91C10.34 8.39 13.42 6.53 17.45 6.53ZM14.88 14.04C11.66 14.04 8.73003 16.51 8.73003 20.99C8.73003 25.47 11.65 27.94 14.88 27.94C18.11 27.94 21.08 25.42 21.08 20.94C21.08 16.46 18.16 14.04 14.88 14.04Z" fill="white"/>
<path d="M32.36 12.24H40.98V35.1H32.36V12.24Z" fill="white"/>
<path d="M55.33 14.0801H51.9V6.92008H55.33V0.0800781H63.95V6.93008H69.59V14.0901H63.95V25.3801C63.95 27.0401 64.66 27.7501 66.57 27.7501H69.64V35.0601H65.26C59.41 35.0601 55.33 32.5901 55.33 25.2801V14.0901V14.0801Z" fill="white"/>
<path d="M84.1 6.53003C88.28 6.53003 91.26 8.44003 92.77 10.91V6.93003H101.39V35.05H92.77V31.07C91.21 33.54 88.23 35.45 84.05 35.45C77.2 35.45 71.7 29.81 71.7 20.94C71.7 12.07 77.19 6.53003 84.1 6.53003ZM86.62 14.04C83.4 14.04 80.47 16.46 80.47 20.94C80.47 25.42 83.39 27.94 86.62 27.94C89.85 27.94 92.77 25.47 92.77 20.99C92.77 16.51 89.9 14.04 86.62 14.04Z" fill="white"/>
<path d="M104.61 0H113.23V18.37L121.75 6.93H132.38L120.69 21.04L132.48 35.05H121.8L113.23 23.26V35.05H104.61V0Z" fill="white"/>
<path d="M134.39 6.92993H143.01V35.0499H134.39V6.92993Z" fill="white"/>
<path d="M186.64 19.7799C186.64 16.0999 184.52 14.0899 181.25 14.0899C177.98 14.0899 175.86 16.1099 175.86 19.7799V35.0499H167.29V19.7799C167.29 16.0999 165.17 14.0899 161.9 14.0899C158.63 14.0899 156.51 16.1099 156.51 19.7799V35.0499H147.89V6.92988H156.51V10.4599C158.17 8.18988 161.05 6.62988 164.72 6.62988C168.95 6.62988 172.38 8.48988 174.29 11.8699C176.15 8.89988 179.68 6.62988 183.76 6.62988C190.71 6.62988 195.2 11.0599 195.2 18.6199V35.0499H186.63V19.7799H186.64Z" fill="white"/>
<path d="M42.75 0.0600586H49.95V8.32006C45.98 8.32006 42.75 5.09006 42.75 1.12006V0.0600586Z" fill="white"/>
<path d="M36.38 8.78996C38.788 8.78996 40.74 6.86926 40.74 4.49996C40.74 2.13066 38.788 0.209961 36.38 0.209961C33.9721 0.209961 32.02 2.13066 32.02 4.49996C32.02 6.86926 33.9721 8.78996 36.38 8.78996Z" fill="white"/>
<g opacity="0.5">
<path d="M8.78003 50.96H0.160034V73.74H8.78003V50.96Z" fill="white"/>
<path d="M22.48 53.78C22.48 52.42 23.59 51.61 25.6 51.61C28.02 51.61 29.48 52.87 29.73 54.78H37.69C37.14 49.24 33.1 45.21 25.85 45.21C18.6 45.21 14.41 49.14 14.41 53.93C14.41 64.26 29.73 60.98 29.73 65.52C29.73 66.78 28.57 67.79 26.35 67.79C23.98 67.79 22.22 66.48 22.02 64.51H13.5C13.83 69 17.33 72.63 22.76 73.76L21.96 77.79H27.6L29.11 73.94C34.57 73.13 37.83 69.8 37.83 65.57C37.68 55.09 22.46 58.26 22.46 53.78H22.48Z" fill="white"/>
<path d="M51.76 38.71H43.14V73.73H51.76V38.71Z" fill="white"/>
<path d="M70.5101 45.2099C62.1501 45.2099 56.3 50.7499 56.3 59.6699C56.3 68.5899 62.2501 74.1299 70.5101 74.1299C77.5101 74.1299 82.5 69.9 83.8601 64.4H74.6901C73.9801 65.91 72.62 67.12 70.21 67.12C67.44 67.12 65.1701 65.41 64.8701 61.7299H84.3701C84.4701 60.87 84.52 60.0199 84.52 59.2099C84.52 50.6399 78.7301 45.2 70.5101 45.2V45.2099ZM64.92 56.95C65.42 53.83 67.5901 52.11 70.4101 52.11C73.2301 52.11 75.7 53.87 75.7 56.95H64.92Z" fill="white"/>
<path d="M97.67 50.3001V45.6101H89.05V73.7301H97.67V60.6801C97.67 55.8401 100.04 54.4301 104.12 54.4301H106.49V45.3101C102.71 45.3101 99.64 47.3301 97.67 50.3001Z" fill="white"/>
<path d="M4.36 47.8801C6.76796 47.8801 8.72 45.9594 8.72 43.59C8.72 41.2207 6.76796 39.3 4.36 39.3C1.95204 39.3 0 41.2207 0 43.59C0 45.9594 1.95204 47.8801 4.36 47.8801Z" fill="white"/>
</g>
</g>
<defs>
<clipPath id="clip0_5690_1851">
<rect width="195.21" height="77.8" fill="white"/>
</clipPath>
</defs>
</svg>
